<?xml version="1.0" encoding="UTF-8" standalone="no"?>
<!-- Created with Inkscape (http://www.inkscape.org/) -->

<svg
   xmlns:dc="http://purl.org/dc/elements/1.1/"
   xmlns:cc="http://creativecommons.org/ns#"
   xmlns:rdf="http://www.w3.org/1999/02/22-rdf-syntax-ns#"
   xmlns:svg="http://www.w3.org/2000/svg"
   xmlns="http://www.w3.org/2000/svg"
   xmlns:xlink="http://www.w3.org/1999/xlink"
   xmlns:sodipodi="http://sodipodi.sourceforge.net/DTD/sodipodi-0.dtd"
   xmlns:inkscape="http://www.inkscape.org/namespaces/inkscape"
   width="200"
   height="200"
   id="svg2"
   version="1.1"
   inkscape:version="0.47 r22583"
   sodipodi:docname="favicon.svg"
   inkscape:export-filename="/home/pauek/src/pauek/go/src/Academio/webapp/img/favicon.png"
   inkscape:export-xdpi="14.4"
   inkscape:export-ydpi="14.4">
  <defs
     id="defs4">
    <linearGradient
       id="linearGradient3624">
      <stop
         style="stop-color:#ac7821;stop-opacity:1;"
         offset="0"
         id="stop3626" />
      <stop
         id="stop3632"
         offset="0.62711865"
         style="stop-color:#ac7821;stop-opacity:1;" />
      <stop
         style="stop-color:#543b10;stop-opacity:1;"
         offset="1"
         id="stop3628" />
    </linearGradient>
    <linearGradient
       id="linearGradient3614">
      <stop
         style="stop-color:#5f6e8d;stop-opacity:1;"
         offset="0"
         id="stop3616" />
      <stop
         id="stop3622"
         offset="0.25423729"
         style="stop-color:#3c4658;stop-opacity:1;" />
      <stop
         style="stop-color:#384253;stop-opacity:1;"
         offset="1"
         id="stop3618" />
    </linearGradient>
    <linearGradient
       id="linearGradient3671">
      <stop
         style="stop-color:#efa72c;stop-opacity:1;"
         offset="0"
         id="stop3673" />
      <stop
         style="stop-color:#b2750e;stop-opacity:1;"
         offset="1"
         id="stop3675" />
    </linearGradient>
    <inkscape:perspective
       sodipodi:type="inkscape:persp3d"
       inkscape:vp_x="0 : 526.18109 : 1"
       inkscape:vp_y="0 : 1000 : 0"
       inkscape:vp_z="744.09448 : 526.18109 : 1"
       inkscape:persp3d-origin="372.04724 : 350.78739 : 1"
       id="perspective10" />
    <linearGradient
       inkscape:collect="always"
       xlink:href="#linearGradient3671"
       id="linearGradient3677"
       x1="99.692451"
       y1="1052.3622"
       x2="99.692451"
       y2="921.14209"
       gradientUnits="userSpaceOnUse" />
    <linearGradient
       inkscape:collect="always"
       xlink:href="#linearGradient3671"
       id="linearGradient3682"
       gradientUnits="userSpaceOnUse"
       x1="99.692451"
       y1="1052.3622"
       x2="99.692451"
       y2="921.14209"
       gradientTransform="translate(0,-852.36218)" />
    <clipPath
       clipPathUnits="userSpaceOnUse"
       id="clipPath3765">
      <path
         sodipodi:nodetypes="cccccccccccc"
         id="path3767"
         d="M 83.21875,25.96875 C 64.02572,72.79648 46.615724,117.1945 31.59375,155.00002 l -31.59375,0 0,9.625 45.65625,0 C 58.705674,128.48501 76.101201,83.5819 89.59375,48.6875 c 9.938078,37.65747 27.7702,86.7299 44.03125,115.81252 l 66.375,0 0,-9.5 -25.6875,0 C 153.60461,120.67596 130.1058,68.09642 119,25.96875 l -35.78125,0 z"
         style="fill:#13f500;fill-opacity:0.35064937;stroke:none" />
    </clipPath>
    <clipPath
       clipPathUnits="userSpaceOnUse"
       id="clipPath3831">
      <rect
         ry="37.451881"
         y="852.36218"
         x="0"
         height="200"
         width="200"
         id="rect3833"
         style="fill:#000000;fill-opacity:0.19521915;stroke:none"
         rx="37.451881" />
    </clipPath>
  </defs>
  <sodipodi:namedview
     id="base"
     pagecolor="#b6cef0"
     bordercolor="#666666"
     borderopacity="1.0"
     inkscape:pageopacity="0"
     inkscape:pageshadow="2"
     inkscape:zoom="2.8284272"
     inkscape:cx="51.408024"
     inkscape:cy="79.076761"
     inkscape:document-units="px"
     inkscape:current-layer="g3818"
     showgrid="false"
     showguides="true"
     inkscape:guide-bbox="true"
     inkscape:window-width="1920"
     inkscape:window-height="1051"
     inkscape:window-x="0"
     inkscape:window-y="0"
     inkscape:window-maximized="1" />
  <metadata
     id="metadata7">
    <rdf:RDF>
      <cc:Work
         rdf:about="">
        <dc:format>image/svg+xml</dc:format>
        <dc:type
           rdf:resource="http://purl.org/dc/dcmitype/StillImage" />
        <dc:title></dc:title>
      </cc:Work>
    </rdf:RDF>
  </metadata>
  <g
     inkscape:label="Layer 1"
     inkscape:groupmode="layer"
     id="layer1"
     transform="translate(0,-852.36218)">
    <g
       id="g3818"
       clip-path="url(#clipPath3831)">
      <path
         sodipodi:nodetypes="ccccccccc"
         id="path3723"
         d="M 55.409353,873.51291 0,997.3622 l 0,17.875 49.206503,19.4779 68.347437,-0.5392 82.44606,-19.3137 0,-15.5 -60.15076,-126.5564 -84.439887,0.70711 z"
         style="fill:#ffffff;fill-opacity:1;stroke:none" />
      <path
         sodipodi:nodetypes="ccccccccccc"
         id="path3689"
         d="M 27.78125,852.36218 C 12.392361,852.36218 0,864.75454 0,880.14343 l 0,129.09747 22.09375,-11.7557 47.125,-108.99742 c 12.570621,-6.72428 44.75875,-7.40414 57.78125,-0.5 l 58.267,109.99007 14.733,8.90945 0,-126.74387 c 0,-15.38889 -12.39236,-27.78125 -27.78125,-27.78125 l -144.4375,0 z"
         style="fill:#384253;fill-opacity:1;stroke:none;stroke-opacity:1;stroke-width:9;stroke-miterlimit:4;stroke-dasharray:none" />
      <path
         sodipodi:nodetypes="cccccccccc"
         id="rect3590"
         transform="translate(0,852.36218)"
         d="M 81.59375,65.1875 43.65625,167.625 0,167.625 0,175 c 0,13.85 12.147281,25 27.53125,25 l 144.40625,0 C 187.32147,200 200,188.85 200,175 l 0,-7.5 -76.875,0 L 81.59375,65.1875 z"
         style="fill:#efa72c;fill-opacity:1;stroke:none;stroke-opacity:1;stroke-width:10;stroke-miterlimit:10;stroke-dasharray:none;stroke-linejoin:miter;stroke-linecap:butt" />
      <path
         style="fill:none;fill-opacity:1;stroke:#384253;stroke-opacity:1;stroke-width:9;stroke-miterlimit:4;stroke-dasharray:none"
         d="M -1.4142135,1008.1802 22.419575,997.48523 66.618901,886.87687 c 17.679178,-3.82523 37.301589,-5.74228 63.868369,0.24186 l 52.58519,110.19757 19.76853,10.2907"
         id="path3803"
         sodipodi:nodetypes="cccccc" />
      <path
         style="fill:#ac7821;fill-opacity:1;stroke:none;stroke-opacity:1;stroke-width:10;stroke-miterlimit:10;stroke-dasharray:none;stroke-linejoin:miter;stroke-linecap:butt"
         d="M 81.59375,65.1875 43.65625,167.625 0,167.625 0,175 c 0,13.85 12.147281,25 27.53125,25 l 144.40625,0 C 187.32147,200 200,188.85 200,175 l 0,-7.5 -76.875,0 L 81.59375,65.1875 z"
         transform="translate(0,852.36218)"
         id="path3805"
         sodipodi:nodetypes="cccccccccc" />
      <path
         sodipodi:nodetypes="ccccc"
         id="path3807"
         transform="translate(0,852.36218)"
         d="m 200,167.5 c -20.58432,-2.01094 -47.66919,-3.50969 -76.875,0 L 81.59375,65.1875 43.65625,167.625 C 22.332405,164.9163 12.432549,166.77719 0,167.625"
         style="fill:none;fill-opacity:1;stroke:#ac7821;stroke-opacity:1;stroke-width:10;stroke-miterlimit:10;stroke-dasharray:none;stroke-linejoin:miter;stroke-linecap:butt" />
    </g>
  </g>
</svg>
