<?xml version="1.0" encoding="UTF-8" standalone="no"?>
<!-- Created with Inkscape (http://www.inkscape.org/) -->

<svg
   xmlns:dc="http://purl.org/dc/elements/1.1/"
   xmlns:cc="http://creativecommons.org/ns#"
   xmlns:rdf="http://www.w3.org/1999/02/22-rdf-syntax-ns#"
   xmlns:svg="http://www.w3.org/2000/svg"
   xmlns="http://www.w3.org/2000/svg"
   xmlns:xlink="http://www.w3.org/1999/xlink"
   xmlns:sodipodi="http://sodipodi.sourceforge.net/DTD/sodipodi-0.dtd"
   xmlns:inkscape="http://www.inkscape.org/namespaces/inkscape"
   width="200"
   height="200"
   id="svg2"
   version="1.1"
   inkscape:version="0.47 r22583"
   sodipodi:docname="logo.svg"
   inkscape:export-filename="/home/pauek/src/pauek/go/src/Academio/art/favicon.png"
   inkscape:export-xdpi="14.4"
   inkscape:export-ydpi="14.4">
  <defs
     id="defs4">
    <linearGradient
       id="linearGradient3671">
      <stop
         style="stop-color:#efa72c;stop-opacity:1;"
         offset="0"
         id="stop3673" />
      <stop
         style="stop-color:#b2750e;stop-opacity:1;"
         offset="1"
         id="stop3675" />
    </linearGradient>
    <inkscape:perspective
       sodipodi:type="inkscape:persp3d"
       inkscape:vp_x="0 : 526.18109 : 1"
       inkscape:vp_y="0 : 1000 : 0"
       inkscape:vp_z="744.09448 : 526.18109 : 1"
       inkscape:persp3d-origin="372.04724 : 350.78739 : 1"
       id="perspective10" />
    <linearGradient
       inkscape:collect="always"
       xlink:href="#linearGradient3671"
       id="linearGradient3677"
       x1="99.692451"
       y1="1052.3622"
       x2="99.692451"
       y2="921.14209"
       gradientUnits="userSpaceOnUse" />
    <linearGradient
       inkscape:collect="always"
       xlink:href="#linearGradient3671"
       id="linearGradient3682"
       gradientUnits="userSpaceOnUse"
       x1="99.692451"
       y1="1052.3622"
       x2="99.692451"
       y2="921.14209"
       gradientTransform="translate(0,-852.36218)" />
    <filter
       inkscape:collect="always"
       id="filter3755"
       x="-0.10539373"
       width="1.2107875"
       y="-0.13930605"
       height="1.2786121">
      <feGaussianBlur
         inkscape:collect="always"
         stdDeviation="8.7828108"
         id="feGaussianBlur3757" />
    </filter>
    <clipPath
       clipPathUnits="userSpaceOnUse"
       id="clipPath3765">
      <path
         sodipodi:nodetypes="cccccccccccc"
         id="path3767"
         d="M 83.21875,25.96875 C 64.02572,72.79648 46.615724,117.1945 31.59375,155.00002 l -31.59375,0 0,9.625 45.65625,0 C 58.705674,128.48501 76.101201,83.5819 89.59375,48.6875 c 9.938078,37.65747 27.7702,86.7299 44.03125,115.81252 l 66.375,0 0,-9.5 -25.6875,0 C 153.60461,120.67596 130.1058,68.09642 119,25.96875 l -35.78125,0 z"
         style="fill:#13f500;fill-opacity:0.35064937;stroke:none" />
    </clipPath>
    <filter
       inkscape:collect="always"
       id="filter3783"
       x="-0.11660584"
       width="1.2332117"
       y="-0.15045914"
       height="1.3009183">
      <feGaussianBlur
         inkscape:collect="always"
         stdDeviation="9.7171537"
         id="feGaussianBlur3785" />
    </filter>
    <clipPath
       clipPathUnits="userSpaceOnUse"
       id="clipPath3831">
      <rect
         ry="37.451881"
         y="852.36218"
         x="0"
         height="200"
         width="200"
         id="rect3833"
         style="fill:#000000;fill-opacity:0.19521915;stroke:none"
         rx="37.451881" />
    </clipPath>
  </defs>
  <sodipodi:namedview
     id="base"
     pagecolor="#b6cef0"
     bordercolor="#666666"
     borderopacity="1.0"
     inkscape:pageopacity="0"
     inkscape:pageshadow="2"
     inkscape:zoom="1.4142136"
     inkscape:cx="141.58828"
     inkscape:cy="98.889617"
     inkscape:document-units="px"
     inkscape:current-layer="layer1"
     showgrid="false"
     showguides="true"
     inkscape:guide-bbox="true"
     inkscape:window-width="1920"
     inkscape:window-height="1051"
     inkscape:window-x="0"
     inkscape:window-y="0"
     inkscape:window-maximized="1" />
  <metadata
     id="metadata7">
    <rdf:RDF>
      <cc:Work
         rdf:about="">
        <dc:format>image/svg+xml</dc:format>
        <dc:type
           rdf:resource="http://purl.org/dc/dcmitype/StillImage" />
        <dc:title></dc:title>
      </cc:Work>
    </rdf:RDF>
  </metadata>
  <g
     inkscape:label="Layer 1"
     inkscape:groupmode="layer"
     id="layer1"
     transform="translate(0,-852.36218)">
    <g
       id="g3818"
       clip-path="url(#clipPath3831)">
      <path
         sodipodi:nodetypes="cccccccccccc"
         id="path3723"
         d="m 81.21875,870.33093 -49.625,127.03127 -31.59375,0 0,25.625 54.15625,-1 32.4375,-93.43752 38.03125,94.31252 75.375,0 0,-23.5 -17.6875,0 L 125,870.33093 l -43.78125,0 z"
         style="fill:#ffffff;fill-opacity:1;stroke:none" />
      <path
         sodipodi:nodetypes="ccccccccccc"
         id="path3689"
         d="M 27.78125,852.36218 C 12.392361,852.36218 0,864.75454 0,880.14343 l 0,121.21877 22.09375,0 47.125,-118.53127 57.78125,-0.5 53.8125,119.03127 19.1875,0 0,-121.21877 c 0,-15.38889 -12.39236,-27.78125 -27.78125,-27.78125 l -144.4375,0 z"
         style="fill:#374051;fill-opacity:1;stroke:none;stroke-opacity:1;stroke-width:9;stroke-miterlimit:4;stroke-dasharray:none" />
      <path
         sodipodi:nodetypes="cccccccccc"
         id="rect3590"
         transform="translate(0,852.36218)"
         d="M 81.59375,65.1875 43.65625,167.625 0,167.625 0,175 c 0,13.85 12.147281,25 27.53125,25 l 144.40625,0 C 187.32147,200 200,188.85 200,175 l 0,-7.5 -76.875,0 L 81.59375,65.1875 z"
         style="fill:#efa72c;fill-opacity:1;stroke:none;stroke-opacity:1;stroke-width:10;stroke-miterlimit:10;stroke-dasharray:none;stroke-linejoin:miter;stroke-linecap:butt" />
      <path
         style="fill:none;fill-opacity:1;stroke:#242b35;stroke-opacity:1;stroke-width:9;stroke-miterlimit:4;stroke-dasharray:none"
         d="m 0,1001.3622 22.09375,0 47.125,-118.53127 57.78125,-0.5 53.8125,119.03127 19.1875,0"
         id="path3803"
         sodipodi:nodetypes="cccccc" />
      <path
         style="fill:#efa72c;fill-opacity:1;stroke:none;stroke-opacity:1;stroke-width:10;stroke-miterlimit:10;stroke-dasharray:none;stroke-linejoin:miter;stroke-linecap:butt"
         d="M 81.59375,65.1875 43.65625,167.625 0,167.625 0,175 c 0,13.85 12.147281,25 27.53125,25 l 144.40625,0 C 187.32147,200 200,188.85 200,175 l 0,-7.5 -76.875,0 L 81.59375,65.1875 z"
         transform="translate(0,852.36218)"
         id="path3805"
         sodipodi:nodetypes="cccccccccc" />
      <path
         sodipodi:nodetypes="ccccc"
         id="path3807"
         transform="translate(0,852.36218)"
         d="m 200,167.5 -76.875,0 L 81.59375,65.1875 43.65625,167.625 0,167.625"
         style="fill:#efa72c;fill-opacity:1;stroke:#c97a0a;stroke-opacity:1;stroke-width:10;stroke-miterlimit:10;stroke-dasharray:none;stroke-linejoin:miter;stroke-linecap:butt" />
    </g>
  </g>
</svg>
