<?xml version="1.0" encoding="UTF-8" standalone="no"?>
<!-- Created with Inkscape (http://www.inkscape.org/) -->

<svg
   xmlns:dc="http://purl.org/dc/elements/1.1/"
   xmlns:cc="http://creativecommons.org/ns#"
   xmlns:rdf="http://www.w3.org/1999/02/22-rdf-syntax-ns#"
   xmlns:svg="http://www.w3.org/2000/svg"
   xmlns="http://www.w3.org/2000/svg"
   xmlns:sodipodi="http://sodipodi.sourceforge.net/DTD/sodipodi-0.dtd"
   xmlns:inkscape="http://www.inkscape.org/namespaces/inkscape"
   width="250"
   height="150"
   id="svg2"
   version="1.1"
   inkscape:version="0.47 r22583"
   sodipodi:docname="New document 1">
  <defs
     id="defs4">
    <inkscape:perspective
       sodipodi:type="inkscape:persp3d"
       inkscape:vp_x="0 : 526.18109 : 1"
       inkscape:vp_y="0 : 1000 : 0"
       inkscape:vp_z="744.09448 : 526.18109 : 1"
       inkscape:persp3d-origin="372.04724 : 350.78739 : 1"
       id="perspective10" />
  </defs>
  <sodipodi:namedview
     id="base"
     pagecolor="#ffffff"
     bordercolor="#666666"
     borderopacity="1.0"
     inkscape:pageopacity="0.0"
     inkscape:pageshadow="2"
     inkscape:zoom="2.8284271"
     inkscape:cx="114.23872"
     inkscape:cy="100.5954"
     inkscape:document-units="px"
     inkscape:current-layer="text2820"
     showgrid="false"
     showguides="true"
     inkscape:guide-bbox="true"
     inkscape:window-width="1365"
     inkscape:window-height="900"
     inkscape:window-x="0"
     inkscape:window-y="25"
     inkscape:window-maximized="0" />
  <metadata
     id="metadata7">
    <rdf:RDF>
      <cc:Work
         rdf:about="">
        <dc:format>image/svg+xml</dc:format>
        <dc:type
           rdf:resource="http://purl.org/dc/dcmitype/StillImage" />
        <dc:title></dc:title>
      </cc:Work>
    </rdf:RDF>
  </metadata>
  <g
     inkscape:label="Layer 1"
     inkscape:groupmode="layer"
     id="layer1"
     transform="translate(0,-902.36218)">
    <text
       xml:space="preserve"
       style="font-size:48px;font-style:normal;font-variant:normal;font-weight:bold;font-stretch:normal;text-align:start;line-height:125%;writing-mode:lr;text-anchor:start;fill:#000000;fill-opacity:1;stroke:none;font-family:PT Sans;-inkscape-font-specification:PT Sans Bold"
       x="54.548237"
       y="73.228409"
       id="text2816"
       transform="translate(0,902.36218)"
       sodipodi:linespacing="125%"><tspan
         sodipodi:role="line"
         id="tspan2818"
         x="54.548237"
         y="73.228409">cadem</tspan></text>
    <g
       style="font-size:48px;font-style:normal;font-variant:normal;font-weight:normal;font-stretch:normal;text-align:start;line-height:125%;writing-mode:lr-tb;text-anchor:start;fill:#000000;fill-opacity:1;stroke:none;font-family:Liberation Sans;-inkscape-font-specification:Liberation Sans"
       id="text2820"
       transform="matrix(0.78582113,0,0,0.87609854,17.400541,121.49713)">
      <path
         d="m 23.402827,944.21603 c -1.28218,3.22466 -4.587942,11.86415 -10.785197,22.41137 -3.2127438,5.46784 -4.1990569,5.74351 -7.8346157,6.33947 l 0.00357,1.91464 13.6751857,0 c 2.999385,-5.52835 4.837488,-9.98056 8.60535,-17.80139 0.262189,-0.59613 0.460551,-1.20715 0.705292,-1.81822 0.262188,-0.61101 0.47803,-1.16244 0.670331,-1.66918 0.209746,-0.5067 0.30931,-0.93888 0.431688,-1.2817 0.122347,-0.34274 0.151983,-0.76023 0.186965,-0.83479 0.01746,0.0745 0.02962,0.49205 0.152003,0.83479 0.139823,0.32791 0.239389,0.74519 0.431689,1.25189 0.192265,0.49184 0.390629,1.05817 0.635372,1.66917 0.262183,0.61107 0.495509,1.19232 0.775213,1.78843 2.93751,6.81995 5.498161,12.16465 8.81253,17.87706 l 10.317407,0 C 44.701696,964.3074 36.249196,949.36562 35.704229,944.21608 l -12.301427,0 0,-5e-5 4.2e-5,0 -1.7e-5,0 z"
         id="path2841"
         sodipodi:nodetypes="csccccssssssscccccccc" />
    </g>
    <text
       xml:space="preserve"
       style="font-size:48px;font-style:normal;font-variant:normal;font-weight:bold;font-stretch:normal;text-align:start;line-height:125%;writing-mode:lr-tb;text-anchor:start;fill:#000000;fill-opacity:1;stroke:none;font-family:PT Sans;-inkscape-font-specification:PT Sans Bold"
       x="193.69661"
       y="975.33801"
       id="text2828"
       sodipodi:linespacing="125%"><tspan
         sodipodi:role="line"
         id="tspan2830"
         x="193.69661"
         y="975.33801">io</tspan></text>
  </g>
</svg>
