<?xml version="1.0" encoding="UTF-8" standalone="no"?>
<!-- Created with Inkscape (http://www.inkscape.org/) -->

<svg
   xmlns:dc="http://purl.org/dc/elements/1.1/"
   xmlns:cc="http://creativecommons.org/ns#"
   xmlns:rdf="http://www.w3.org/1999/02/22-rdf-syntax-ns#"
   xmlns:svg="http://www.w3.org/2000/svg"
   xmlns="http://www.w3.org/2000/svg"
   xmlns:sodipodi="http://sodipodi.sourceforge.net/DTD/sodipodi-0.dtd"
   xmlns:inkscape="http://www.inkscape.org/namespaces/inkscape"
   width="115"
   height="60"
   id="svg2"
   version="1.1"
   inkscape:version="0.47 r22583"
   sodipodi:docname="point2.svg"
   inkscape:export-filename="/home/pauek/src/pauek/go/src/Academio/webapp/img/point2.png"
   inkscape:export-xdpi="45"
   inkscape:export-ydpi="45">
  <defs
     id="defs4">
    <inkscape:perspective
       sodipodi:type="inkscape:persp3d"
       inkscape:vp_x="0 : 526.18109 : 1"
       inkscape:vp_y="0 : 1000 : 0"
       inkscape:vp_z="744.09448 : 526.18109 : 1"
       inkscape:persp3d-origin="372.04724 : 350.78739 : 1"
       id="perspective10" />
    <inkscape:perspective
       id="perspective2824"
       inkscape:persp3d-origin="0.5 : 0.33333333 : 1"
       inkscape:vp_z="1 : 0.5 : 1"
       inkscape:vp_y="0 : 1000 : 0"
       inkscape:vp_x="0 : 0.5 : 1"
       sodipodi:type="inkscape:persp3d" />
    <inkscape:perspective
       id="perspective3682"
       inkscape:persp3d-origin="0.5 : 0.33333333 : 1"
       inkscape:vp_z="1 : 0.5 : 1"
       inkscape:vp_y="0 : 1000 : 0"
       inkscape:vp_x="0 : 0.5 : 1"
       sodipodi:type="inkscape:persp3d" />
  </defs>
  <sodipodi:namedview
     id="base"
     pagecolor="#ffffff"
     bordercolor="#666666"
     borderopacity="1.0"
     inkscape:pageopacity="0.0"
     inkscape:pageshadow="2"
     inkscape:zoom="7.031798"
     inkscape:cx="45.593757"
     inkscape:cy="28.305213"
     inkscape:document-units="px"
     inkscape:current-layer="layer1"
     showgrid="false"
     inkscape:window-width="1553"
     inkscape:window-height="847"
     inkscape:window-x="135"
     inkscape:window-y="89"
     inkscape:window-maximized="0" />
  <metadata
     id="metadata7">
    <rdf:RDF>
      <cc:Work
         rdf:about="">
        <dc:format>image/svg+xml</dc:format>
        <dc:type
           rdf:resource="http://purl.org/dc/dcmitype/StillImage" />
        <dc:title></dc:title>
      </cc:Work>
    </rdf:RDF>
  </metadata>
  <g
     inkscape:label="Layer 1"
     inkscape:groupmode="layer"
     id="layer1"
     transform="translate(0,-992.3622)">
    <g
       id="g3693"
       transform="matrix(0.71661106,-0.37519558,0.37519558,0.71661106,-254.52927,310.13826)">
      <path
         sodipodi:nodetypes="cszzcc"
         id="rect3688"
         d="m -52.767843,957.93958 c 3.377649,-2.00976 11.265829,-4.29036 17.178193,-4.44032 10.260628,-0.26023 20.011188,0.11382 20.509382,7.51935 0.498194,7.40554 -8.331335,12.57128 -19.379348,12.5039 -11.048013,-0.0674 -14.185408,-2.44959 -18.253167,-4.13506 l -0.05506,-11.44787 z"
         style="fill:#404040;fill-opacity:1;stroke:none" />
      <path
         style="fill:#404040;fill-opacity:1;stroke:none"
         d="m -68.037606,971.49131 c -4.262752,0.0477 -8.063954,-3.21309 -7.98675,-7.6161 0.0772,-4.40302 4.443274,-7.55062 7.910759,-7.6898 3.467484,-0.13918 4.247527,0.003 9.634329,1.85612 l 0.04419,11.53468 c -2.093225,0.55556 -5.339776,1.86744 -9.602528,1.9151 z"
         id="path3691"
         sodipodi:nodetypes="czzccz" />
    </g>
    <g
       transform="matrix(0.59666847,-0.54615919,-0.54615919,-0.59666847,576.70181,1577.8572)"
       id="g3697">
      <path
         style="fill:#404040;fill-opacity:1;stroke:none"
         d="m -52.767843,957.93958 c 3.377649,-2.00976 11.265829,-4.29036 17.178193,-4.44032 10.260628,-0.26023 20.011188,0.11382 20.509382,7.51935 0.498194,7.40554 -8.331335,12.57128 -19.379348,12.5039 -11.048013,-0.0674 -14.185408,-2.44959 -18.253167,-4.13506 l -0.05506,-11.44787 z"
         id="path3699"
         sodipodi:nodetypes="cszzcc" />
      <path
         sodipodi:nodetypes="czzccz"
         id="path3701"
         d="m -68.037606,971.49131 c -4.262752,0.0477 -8.063954,-3.21309 -7.98675,-7.6161 0.0772,-4.40302 4.443274,-7.55062 7.910759,-7.6898 3.467484,-0.13918 4.247527,0.003 9.634329,1.85612 l 0.04419,11.53468 c -2.093225,0.55556 -5.339776,1.86744 -9.602528,1.9151 z"
         style="fill:#404040;fill-opacity:1;stroke:none" />
    </g>
  </g>
</svg>
