<?xml version="1.0" encoding="UTF-8" standalone="no"?>
<!-- Created with Inkscape (http://www.inkscape.org/) -->

<svg
   xmlns:dc="http://purl.org/dc/elements/1.1/"
   xmlns:cc="http://creativecommons.org/ns#"
   xmlns:rdf="http://www.w3.org/1999/02/22-rdf-syntax-ns#"
   xmlns:svg="http://www.w3.org/2000/svg"
   xmlns="http://www.w3.org/2000/svg"
   xmlns:xlink="http://www.w3.org/1999/xlink"
   xmlns:sodipodi="http://sodipodi.sourceforge.net/DTD/sodipodi-0.dtd"
   xmlns:inkscape="http://www.inkscape.org/namespaces/inkscape"
   width="80"
   height="60"
   id="svg2"
   version="1.1"
   inkscape:version="0.47 r22583"
   sodipodi:docname="point3.svg"
   inkscape:export-filename="/home/pauek/src/pauek/go/src/Academio/webapp/img/point3.png"
   inkscape:export-xdpi="45"
   inkscape:export-ydpi="45">
  <defs
     id="defs4">
    <inkscape:perspective
       sodipodi:type="inkscape:persp3d"
       inkscape:vp_x="0 : 526.18109 : 1"
       inkscape:vp_y="0 : 1000 : 0"
       inkscape:vp_z="744.09448 : 526.18109 : 1"
       inkscape:persp3d-origin="372.04724 : 350.78739 : 1"
       id="perspective10" />
    <inkscape:perspective
       id="perspective2824"
       inkscape:persp3d-origin="0.5 : 0.33333333 : 1"
       inkscape:vp_z="1 : 0.5 : 1"
       inkscape:vp_y="0 : 1000 : 0"
       inkscape:vp_x="0 : 0.5 : 1"
       sodipodi:type="inkscape:persp3d" />
    <inkscape:perspective
       id="perspective4398"
       inkscape:persp3d-origin="0.5 : 0.33333333 : 1"
       inkscape:vp_z="1 : 0.5 : 1"
       inkscape:vp_y="0 : 1000 : 0"
       inkscape:vp_x="0 : 0.5 : 1"
       sodipodi:type="inkscape:persp3d" />
  </defs>
  <sodipodi:namedview
     id="base"
     pagecolor="#ffffff"
     bordercolor="#666666"
     borderopacity="1.0"
     inkscape:pageopacity="0.0"
     inkscape:pageshadow="2"
     inkscape:zoom="2.8284271"
     inkscape:cx="29.637111"
     inkscape:cy="12.514015"
     inkscape:document-units="px"
     inkscape:current-layer="layer1"
     showgrid="false"
     inkscape:window-width="1553"
     inkscape:window-height="847"
     inkscape:window-x="242"
     inkscape:window-y="93"
     inkscape:window-maximized="0" />
  <metadata
     id="metadata7">
    <rdf:RDF>
      <cc:Work
         rdf:about="">
        <dc:format>image/svg+xml</dc:format>
        <dc:type
           rdf:resource="http://purl.org/dc/dcmitype/StillImage" />
        <dc:title></dc:title>
      </cc:Work>
    </rdf:RDF>
  </metadata>
  <g
     inkscape:label="Layer 1"
     inkscape:groupmode="layer"
     id="layer1"
     transform="translate(0,-992.3622)">
    <image
       y="1075.8188"
       x="-50.848244"
       id="image4400"
       height="50.503845"
       width="445.46982"
       xlink:href="file:///home/pauek/Desktop/es_es_symc-auth_logo.png" />
    <g
       id="g4420"
       transform="matrix(1.1709479,0,0,1.1709479,-6.2057913,-172.75371)">
      <path
         style="fill:#057c18;fill-opacity:1;stroke:#057c18;stroke-width:1.77100003;stroke-miterlimit:4;stroke-opacity:1;stroke-dasharray:none"
         d="M 27.5625 4.25 C 13.482234 4.9637396 2.3125 16.617421 2.3125 30.875 C 2.3125 45.592527 14.219938 57.5 28.9375 57.5 C 43.655062 57.5 55.5625 45.592527 55.5625 30.875 C 55.5625 25.272876 53.825927 20.098827 50.875 15.8125 L 47.40625 20.59375 C 49.15674 23.652092 50.09375 27.065076 50.09375 30.875 C 50.09375 42.549819 40.612375 52.03125 28.9375 52.03125 C 17.262625 52.03125 7.78125 42.549819 7.78125 30.875 C 7.78125 19.200064 17.262625 9.71875 28.9375 9.71875 C 32.7696 9.71875 36.12047 10.580307 39.1875 12.34375 L 43.1875 8.375 C 39.064416 5.7548292 34.189399 4.25 28.9375 4.25 C 28.477576 4.25 28.016702 4.2269323 27.5625 4.25 z "
         transform="matrix(0.85400896,0,0,0.85400896,5.2998014,995.01943)"
         id="path4410" />
      <path
         sodipodi:nodetypes="cccccccccccc"
         id="rect4383"
         d="m 16.666299,1017.4593 c 4.145158,5.1947 6.929687,10.147 9.633056,15.8536 l 4.894368,0.2609 2.240649,-2.3071 c 4.560065,-14.541 14.584715,-26.6027 21.520508,-33.6632 l -1.911146,-1.66419 c -5.074163,4.26139 -19.379329,17.08819 -24.444555,28.07099 -2.458324,-3.3947 -6.623349,-7.2818 -8.78394,-8.8747 l -2.592953,-0.027 -0.555971,2.35 -1.6e-5,3e-4 0,4e-4 z"
         style="fill:#057c18;fill-opacity:1;stroke:none" />
    </g>
  </g>
</svg>
